# xmcd
#
# Track frame offsets: 
#        150
#        9710
#        32487
#        50518
#        69190
#        84878
#        104667
#        124248
#        146026
#        165024
#        186697
#        199070
#        216456
#        234837
#        256324
#        273678
#
# Disc length: 3884 seconds
#
# Revision: 7
# Processed by: cddbd v1.5.2PL0 Copyright (c) Steve Scherf et al.
# Submitted via: ExactAudioCopy v0.95b4
#
DISCID=e50f2a10
DTITLE=The Willy DeVille Acoustic Trio - In Berlin
DYEAR=2002
DGENRE=Blues
TTITLE0=St. Peter's Street
TTITLE1=Betty and Dupree
TTITLE2=It's Too Late She's Gone
TTITLE3=Spanish Harlem
TTITLE4=Trouble in Mind
TTITLE5=Storybook Love
TTITLE6=Big Blue Diamond
TTITLE7=Shake Sugaree
TTITLE8=Let It Be Me
TTITLE9=That Is the Way to Make a Broken Heart
TTITLE10=Hound Dog
TTITLE11=Junker's Blues
TTITLE12=You Better Move On
TTITLE13=Night Falls
TTITLE14=I Met You Baby
TTITLE15=Heaven Stood Still
EXTD=YEAR: 2002
EXTT0=
EXTT1=
EXTT2=
EXTT3=
EXTT4=
EXTT5=
EXTT6=
EXTT7=
EXTT8=
EXTT9=
EXTT10=
EXTT11=
EXTT12=
EXTT13=
EXTT14=
EXTT15=
PLAYORDER=
